<svg
  width="26"
  height="26"
  viewBox="0 0 26 26"
  fill="none"
  xmlns="http://www.w3.org/2000/svg"
>
  <path
    d="M7.16659 24.6668H3.66659C3.04775 24.6668 2.45425 24.421 2.01667 23.9834C1.57908 23.5458 1.33325 22.9523 1.33325 22.3335V14.1668C1.33325 13.548 1.57908 12.9545 2.01667 12.5169C2.45425 12.0793 3.04775 11.8335 3.66659 11.8335H7.16659M15.3333 9.50016V4.8335C15.3333 3.90524 14.9645 3.015 14.3081 2.35862C13.6517 1.70225 12.7615 1.3335 11.8333 1.3335L7.16659 11.8335V24.6668H20.3266C20.8893 24.6732 21.4354 24.476 21.8641 24.1115C22.2929 23.747 22.5755 23.2399 22.6599 22.6835L24.2699 12.1835C24.3207 11.8491 24.2981 11.5076 24.2038 11.1828C24.1095 10.858 23.9457 10.5575 23.7238 10.3023C23.5018 10.047 23.227 9.84308 22.9184 9.70458C22.6098 9.56608 22.2748 9.49633 21.9366 9.50016H15.3333Z"
    stroke="#19124F"
    stroke-width="2"
    stroke-linecap="round"
    stroke-linejoin="round"
  />
</svg>
